<?xml version="1.0" encoding="utf-8"?>
<svg viewBox="0 0 500 500" xmlns="http://www.w3.org/2000/svg">
  <path d="M 363.473 164.24 L 363.473 58.462 C 363.473 42.441 352.906 29.462 339.861 29.462 L 139.146 29.462 C 126.101 29.462 115.533 42.441 115.533 58.462 L 115.533 137.994 L 115.416 137.994 C 111.756 142.201 109.631 148.072 109.631 154.164 L 109.631 183.018 C 109.631 189.471 111.933 195.125 115.533 199.114 L 115.533 435.463 C 115.533 451.483 126.101 464.462 139.146 464.462 L 339.861 464.462 C 352.906 464.462 363.473 451.483 363.473 435.463 L 363.473 225.429 L 363.591 225.429 C 367.251 221.225 369.376 215.354 369.376 209.262 L 369.376 180.408 C 369.376 173.955 367.073 168.3 363.473 164.311 L 363.473 164.24 Z M 126.809 190.195 C 123.74 189.831 121.437 186.715 121.437 182.944 L 121.437 154.088 C 121.437 151.988 122.146 150.104 123.384 148.724 C 124.507 147.493 125.865 146.841 127.34 146.841 C 127.518 146.841 127.754 146.841 127.93 146.841 L 352.255 173.084 C 355.326 173.448 357.63 176.564 357.63 180.335 L 357.63 209.189 C 357.63 211.294 356.92 213.178 355.68 214.554 C 354.441 215.933 352.846 216.586 351.134 216.441 L 126.809 190.195 Z M 286.729 105.95 C 286.376 110.083 283.13 113.199 279.527 112.186 C 273.978 110.663 268.016 109.139 261.876 109.139 L 219.196 109.139 C 211.345 109.139 205.442 110.01 200.01 111.967 C 198.122 112.619 196.172 112.258 194.639 110.807 C 193.34 109.574 192.513 107.835 192.335 105.878 C 196.172 88.984 196.172 71.224 192.335 54.329 C 192.513 52.373 193.34 50.633 194.639 49.4 C 196.172 48.021 198.122 47.588 200.01 48.241 C 205.442 50.197 211.404 51.069 219.256 51.069 L 261.876 51.069 C 268.076 51.069 273.978 49.545 279.527 48.021 C 283.07 47.082 286.376 50.124 286.729 54.257 C 282.891 71.152 282.891 88.912 286.729 105.807 L 286.729 105.95 Z M 127.34 58.462 C 127.34 50.488 132.654 43.961 139.146 43.961 L 183.187 43.961 C 181.474 47.297 180.471 51.141 180.471 55.274 C 180.471 55.925 180.528 56.649 180.706 57.301 C 184.249 72.312 184.249 88.115 180.706 103.122 C 180.528 103.775 180.471 104.427 180.471 105.154 C 180.471 112.038 183.068 118.422 187.554 122.553 C 192.099 126.685 197.827 127.989 203.316 125.961 C 207.626 124.365 212.525 123.714 219.196 123.714 L 261.876 123.714 C 266.834 123.714 271.853 124.947 276.929 126.395 C 278.171 126.757 279.527 126.902 280.884 126.902 C 290.626 126.902 298.597 117.115 298.597 105.154 C 298.597 104.499 298.536 103.775 298.36 103.122 C 294.816 88.115 294.816 72.312 298.36 57.301 C 298.536 56.649 298.597 55.998 298.597 55.274 C 298.597 51.069 297.532 47.297 295.821 43.961 L 339.918 43.961 C 346.413 43.961 351.724 50.488 351.724 58.462 L 351.724 158.512 L 129.051 132.485 C 128.463 132.485 127.93 132.485 127.399 132.485 L 127.399 58.462 L 127.34 58.462 Z M 351.668 435.463 C 351.668 443.439 346.354 449.963 339.861 449.963 L 139.146 449.963 C 132.654 449.963 127.34 443.439 127.34 435.463 L 127.34 204.913 L 350.013 230.941 C 350.546 230.941 351.134 231.012 351.668 231.012 L 351.668 435.463 Z" style=""/>
</svg>